# xmcd
#
# Track frame offsets:
#	150
#	12779
#	27296
#	38759
#	50320
#	62833
#	76487
#	89751
#	102367
#	115028
#	126866
#	137189
#	149508
#	159901
#	172324
#	184825
#	197003
#	209189
#	220934
#	232348
#	244556
#	256112
#	266363
#	276799
#
# Disc length: 3822 seconds
#
# Revision: 0
# Processed by: cddbd v1.5.2PL0 Copyright (c) Steve Scherf et al.
# Submitted via: EasyCDDAExtractor 15.3.0.1
#
DISCID=670eec18
DTITLE=Magness Tommy - Best Of King Bluegrass Cd 1
DYEAR=1900
DGENRE=
TTITLE0=Mainer J. E. - Big Ball's In Town
TTITLE1=Mainer J. E. - Gathering Flowers From The Hillside
TTITLE2=Magness Tommy - When I Safely Reach That Other Shore
TTITLE3=Magness Tommy - Little Country Preacher
TTITLE4=Magness Tommy - Wings Of Faith
TTITLE5=Magness Tommy - Jesus Will Save Your Soul
TTITLE6=Grayson Shannon - I Like The Old Time Way
TTITLE7=Grayson Shannon - Let Me Travel Alone
TTITLE8=Grayson Shannon - Since His Sweet Love Rescued Me
TTITLE9=Grayson Shannon - I'm Gonna Walk On
TTITLE10=Martin Jimmy and Bobby Osborne - My Lonely Heart
TTITLE11=Martin Jimmy and Bobby Osborne - She's Just A Cute Thing
TTITLE12=Martin Jimmy and Bobby Osborne - Blue Eyed Darling
TTITLE13=Martin Jimmy and Bobby Osborne - You'll Never Be The Same
TTITLE14=Mainer Wade - Little Birdie
TTITLE15=Mainer Wade - Girl I Left In Sunny Tennessee
TTITLE16=O'Dell Mac - Let's Pray
TTITLE17=O'Dell Mac - Be On Time
TTITLE18=O'Dell Mac - When The Hand Of God Comes Down
TTITLE19=O'Dell Mac - Wolves In Sheep's Clothing
TTITLE20=Jackson Leon - Love Please Come Home
TTITLE21=Jackson Leon - Go Find Another Man
TTITLE22=Jackson Leon - So Goes My Heart
TTITLE23=Jackson Leon - This Heart's Been Broken Before
EXTD=
EXTT0=
EXTT1=
EXTT2=
EXTT3=
EXTT4=
EXTT5=
EXTT6=
EXTT7=
EXTT8=
EXTT9=
EXTT10=
EXTT11=
EXTT12=
EXTT13=
EXTT14=
EXTT15=
EXTT16=
EXTT17=
EXTT18=
EXTT19=
EXTT20=
EXTT21=
EXTT22=
EXTT23=
PLAYORDER=
